<svg width="36" height="38" viewBox="0 0 36 38" fill="none" xmlns="http://www.w3.org/2000/svg">
<ellipse cx="18" cy="18.72" rx="18" ry="18.72" fill="#F5F5F5"/>
<path fill-rule="evenodd" clip-rule="evenodd" d="M19.3214 20.8186C19.3123 20.8448 19.0916 21.4687 18.6294 22.157C18.0133 23.0747 17.2603 23.6582 16.4518 23.8447C16.164 23.9111 15.8809 23.9447 15.6101 23.9447C14.0549 23.9447 13.3347 22.8701 13.3048 22.8243C13.2878 22.7985 13.2852 22.7655 13.298 22.7372C13.3107 22.7089 13.3369 22.6893 13.3673 22.6853C14.331 22.5577 14.4961 22.5294 15.589 22.2188C17.0061 21.8161 19.1763 20.7189 19.198 20.7079C19.2106 20.7015 19.2242 20.6983 19.2377 20.6983C19.259 20.6983 19.28 20.7061 19.2966 20.7209C19.3237 20.7453 19.3335 20.7839 19.3214 20.8186ZM10.5229 22.7543C10.5204 22.7618 10.2637 23.5036 9.5481 23.5036C9.40548 23.5036 9.25322 23.4738 9.09545 23.4149C8.15733 23.0653 7.72736 21.479 7.70957 21.4117C7.69942 21.3735 7.71496 21.3331 7.74796 21.312C7.7625 21.3027 7.77891 21.2982 7.79525 21.2982C7.81592 21.2982 7.83653 21.3055 7.85306 21.3199C7.85989 21.3258 8.54434 21.9194 9.08267 22.1926C9.66698 22.489 9.87154 22.5553 10.4509 22.636C10.4771 22.6396 10.5004 22.655 10.5143 22.6779C10.5282 22.7008 10.5314 22.7288 10.5229 22.7543ZM29.0165 17.5607C28.1202 17.8845 27.1765 18.1065 26.1989 18.214C27.8752 15.9695 28.8705 13.1721 28.8705 10.1384C28.8705 9.92601 28.8655 9.71484 28.8557 9.50487C28.8488 9.35892 28.6645 9.26153 28.5486 9.39179C26.6721 11.4844 24.1115 12.9333 21.2255 13.3756C21.6199 12.547 21.841 11.6175 21.841 10.6357C21.841 9.81127 21.6851 9.02386 21.4015 8.30204C21.3449 8.162 21.1397 8.14211 21.0715 8.30579C20.2097 10.5337 18.0644 11.7032 15.627 12.1083C10.4914 12.9619 6.75 16.142 6.75 21.1179C6.75 26.0938 10.7244 30.1274 15.627 30.1274C19.9379 30.1274 23.5304 27.0088 24.3353 22.8733C26.6491 22.0428 28.4717 20.1574 29.2419 17.7863C29.281 17.66 29.1741 17.5117 29.0165 17.5607Z" fill="#E6E6E6"/>
</svg>
